<?xml version="1.0" encoding="UTF-8"?>
<svg version="1.1" xmlns="http://www.w3.org/2000/svg" width="465" height="465">
<path d="M0 0 C0.94193207 0.00054382 1.88386414 0.00108765 2.8543396 0.00164795 C26.4341961 0.06401202 48.6731005 3.17733365 71.1875 10.375 C72.07711426 10.65827148 72.96672852 10.94154297 73.88330078 11.23339844 C100.72810644 19.97401694 125.35672459 33.51526451 147.1875 51.375 C147.75033691 51.83487305 148.31317383 52.29474609 148.89306641 52.76855469 C161.54293549 63.18609393 173.15739671 74.38184413 183.1875 87.375 C183.63947754 87.94524902 184.09145508 88.51549805 184.55712891 89.10302734 C216.76516113 129.76365167 233.67519683 180.51372663 233.5625 232.1875 C233.56168427 233.6003981 233.56168427 233.6003981 233.56085205 235.0418396 C233.49848798 258.6216961 230.38516635 280.8606005 223.1875 303.375 C222.90422852 304.26461426 222.62095703 305.15422852 222.32910156 306.07080078 C213.58848306 332.91560644 200.04723549 357.54422459 182.1875 379.375 C181.72762695 379.93783691 181.26775391 380.50067383 180.79394531 381.08056641 C170.37640607 393.73043549 159.18065587 405.34489671 146.1875 415.375 C145.61725098 415.82697754 145.04700195 416.27895508 144.45947266 416.74462891 C103.79884833 448.95266113 53.04877337 465.86269683 1.375 465.75 C0.43306793 465.74945618 -0.50886414 465.74891235 -1.4793396 465.74835205 C-25.0591961 465.68598798 -47.2981005 462.57266635 -69.8125 455.375 C-71.14692139 454.95009277 -71.14692139 454.95009277 -72.50830078 454.51660156 C-99.35310644 445.77598306 -123.98172459 432.23473549 -145.8125 414.375 C-146.37533691 413.91512695 -146.93817383 413.45525391 -147.51806641 412.98144531 C-160.16793549 402.56390607 -171.78239671 391.36815587 -181.8125 378.375 C-182.26447754 377.80475098 -182.71645508 377.23450195 -183.18212891 376.64697266 C-215.39016113 335.98634833 -232.30019683 285.23627337 -232.1875 233.5625 C-232.18695618 232.62056793 -232.18641235 231.67863586 -232.18585205 230.7081604 C-232.12348798 207.1283039 -229.01016635 184.8893995 -221.8125 162.375 C-221.38759277 161.04057861 -221.38759277 161.04057861 -220.95410156 159.67919922 C-212.21348306 132.83439356 -198.67223549 108.20577541 -180.8125 86.375 C-180.35262695 85.81216309 -179.89275391 85.24932617 -179.41894531 84.66943359 C-169.00140607 72.01956451 -157.80565587 60.40510329 -144.8125 50.375 C-144.24225098 49.92302246 -143.67200195 49.47104492 -143.08447266 49.00537109 C-102.42384833 16.79733887 -51.67377337 -0.11269683 0 0 Z " fill="#030303" transform="translate(231.8125,-0.375)"/>
<path d="M0 0 C0.94193207 0.00054382 1.88386414 0.00108765 2.8543396 0.00164795 C26.4341961 0.06401202 48.6731005 3.17733365 71.1875 10.375 C72.07711426 10.65827148 72.96672852 10.94154297 73.88330078 11.23339844 C100.72810644 19.97401694 125.35672459 33.51526451 147.1875 51.375 C147.75033691 51.83487305 148.31317383 52.29474609 148.89306641 52.76855469 C161.54293549 63.18609393 173.15739671 74.38184413 183.1875 87.375 C183.63947754 87.94524902 184.09145508 88.51549805 184.55712891 89.10302734 C216.76516113 129.76365167 233.67519683 180.51372663 233.5625 232.1875 C233.56168427 233.6003981 233.56168427 233.6003981 233.56085205 235.0418396 C233.49848798 258.6216961 230.38516635 280.8606005 223.1875 303.375 C222.90422852 304.26461426 222.62095703 305.15422852 222.32910156 306.07080078 C213.58848306 332.91560644 200.04723549 357.54422459 182.1875 379.375 C181.72762695 379.93783691 181.26775391 380.50067383 180.79394531 381.08056641 C170.37640607 393.73043549 159.18065587 405.34489671 146.1875 415.375 C145.61725098 415.82697754 145.04700195 416.27895508 144.45947266 416.74462891 C103.79884833 448.95266113 53.04877337 465.86269683 1.375 465.75 C0.43306793 465.74945618 -0.50886414 465.74891235 -1.4793396 465.74835205 C-25.0591961 465.68598798 -47.2981005 462.57266635 -69.8125 455.375 C-71.14692139 454.95009277 -71.14692139 454.95009277 -72.50830078 454.51660156 C-99.35310644 445.77598306 -123.98172459 432.23473549 -145.8125 414.375 C-146.37533691 413.91512695 -146.93817383 413.45525391 -147.51806641 412.98144531 C-160.16793549 402.56390607 -171.78239671 391.36815587 -181.8125 378.375 C-182.26447754 377.80475098 -182.71645508 377.23450195 -183.18212891 376.64697266 C-215.39016113 335.98634833 -232.30019683 285.23627337 -232.1875 233.5625 C-232.18695618 232.62056793 -232.18641235 231.67863586 -232.18585205 230.7081604 C-232.12348798 207.1283039 -229.01016635 184.8893995 -221.8125 162.375 C-221.38759277 161.04057861 -221.38759277 161.04057861 -220.95410156 159.67919922 C-212.21348306 132.83439356 -198.67223549 108.20577541 -180.8125 86.375 C-180.35262695 85.81216309 -179.89275391 85.24932617 -179.41894531 84.66943359 C-169.00140607 72.01956451 -157.80565587 60.40510329 -144.8125 50.375 C-144.24225098 49.92302246 -143.67200195 49.47104492 -143.08447266 49.00537109 C-102.42384833 16.79733887 -51.67377337 -0.11269683 0 0 Z M-59.63671875 52.65234375 C-68.35341357 65.33692871 -66.95216188 79.29255104 -66.875 94.0625 C-66.86997338 95.74674346 -66.86541253 97.43098837 -66.86132812 99.11523438 C-66.85041827 103.20185953 -66.83321821 107.28841328 -66.8125 111.375 C-67.5177179 111.36167633 -68.22293579 111.34835266 -68.94952393 111.33462524 C-75.59979734 111.21433796 -82.24976673 111.12302155 -88.90088272 111.06412697 C-92.32029927 111.03282959 -95.73881615 110.99039192 -99.15771484 110.92236328 C-103.08940814 110.84462194 -107.02073885 110.81556852 -110.953125 110.7890625 C-112.17928528 110.75809479 -113.40544556 110.72712708 -114.66876221 110.69522095 C-121.32166302 110.49920655 -121.32166302 110.49920655 -126.56176758 114.09765625 C-127.67277972 117.00888542 -128.4145044 119.31268142 -128.68359375 122.3984375 C-128.78003174 123.39246582 -128.87646973 124.38649414 -128.97583008 125.41064453 C-129.06630615 126.51263184 -129.15678223 127.61461914 -129.25 128.75 C-129.42712139 130.61907383 -129.60433015 132.48814005 -129.78343201 134.35702515 C-129.98435037 136.47262866 -130.17822175 138.58881598 -130.37207031 140.70507812 C-131.10966223 148.6436177 -131.9723524 156.56979293 -132.80911255 164.49835205 C-133.35311814 169.66764025 -133.88933342 174.8377354 -134.42578125 180.0078125 C-134.53742111 181.08312225 -134.64906097 182.15843201 -134.76408386 183.2663269 C-136.24502082 197.53519033 -137.71975105 211.80469663 -139.19491577 226.07415771 C-141.62867324 249.61532191 -144.07316763 273.15534468 -146.53253174 296.69384766 C-146.80573193 299.31018472 -147.07848048 301.92656844 -147.35107422 304.54296875 C-147.77588355 308.61962864 -148.20176741 312.69617468 -148.62869263 316.77261353 C-148.79174469 318.32986072 -148.95456943 319.88713173 -149.11715698 321.44442749 C-150.00758324 329.96410291 -150.92984776 338.47889548 -151.9140625 346.98828125 C-154.19674861 366.39759871 -154.19674861 366.39759871 -155.75 385.875 C-155.80760498 386.70523682 -155.86520996 387.53547363 -155.92456055 388.39086914 C-156.06536706 391.49429815 -156.12047856 393.80591807 -154.62127829 396.57613617 C-152.22935122 398.95495237 -150.99626079 398.8751858 -147.65720367 398.87557125 C-146.58367818 398.88538554 -145.51015269 398.89519983 -144.40409613 398.90531152 C-143.22035988 398.89570652 -142.03662364 398.88610151 -140.8170166 398.87620544 C-139.56291945 398.88173984 -138.3088223 398.88727424 -137.0167222 398.89297634 C-133.52885446 398.9077792 -130.04143595 398.89752163 -126.55358243 398.88323963 C-122.79482849 398.87216088 -119.03613917 398.88406211 -115.27738953 398.89308167 C-107.91130781 398.90703738 -100.54539716 398.89944084 -93.17932355 398.88440608 C-84.6069804 398.86757312 -76.0346802 398.87075281 -67.46232563 398.87450016 C-52.17032437 398.88038301 -36.87840537 398.86619054 -21.58642578 398.84155273 C-6.73711056 398.81763071 8.11209475 398.81054793 22.96142578 398.82104492 C39.11901045 398.83244621 55.27654424 398.83439398 71.43412828 398.81994683 C73.15602143 398.81842094 74.87791458 398.81690058 76.59980774 398.81538582 C77.87071987 398.8142491 77.87071987 398.8142491 79.16730699 398.81308941 C85.14716476 398.80834047 91.12699987 398.81020234 97.1068573 398.81445122 C104.39116797 398.81937058 111.67537457 398.81342626 118.95966136 398.79355692 C122.67849324 398.78366406 126.39716643 398.77860112 130.11600685 398.78644943 C134.14149477 398.79477127 138.16655736 398.7799668 142.1920166 398.76268005 C143.96762097 398.77169512 143.96762097 398.77169512 145.77909613 398.78089231 C147.38938436 398.7682324 147.38938436 398.7682324 149.03220367 398.75531673 C149.96203143 398.7542876 150.89185918 398.75325848 151.84986353 398.75219816 C154.62659086 398.30414884 155.51631505 397.59757902 157.1875 395.375 C158.3297298 389.1856497 156.68358894 382.50526387 155.484375 376.42578125 C155.11380912 374.47088923 154.74337166 372.51597286 154.37304688 370.56103516 C154.17799561 369.54688538 153.98294434 368.5327356 153.78198242 367.487854 C152.99068981 363.34445418 152.23201519 359.19537635 151.47377014 355.04582214 C150.46922093 349.54999141 149.45287108 344.05633993 148.4375 338.5625 C148.22062531 337.38869781 148.00375061 336.21489563 147.78030396 335.00552368 C144.82399016 319.0216242 141.78854091 303.05627451 138.64071655 287.10906982 C135.88947506 273.1566538 133.29674613 259.17858212 130.75 245.1875 C127.42827797 226.94045109 123.9485553 208.7299008 120.3605957 190.53344727 C118.29667837 180.0632649 116.26112457 169.58926924 114.30541992 159.09829712 C113.94498997 157.1651716 113.58286449 155.23236245 113.22070312 153.29956055 C112.06640757 147.13017597 110.93042255 140.958037 109.81640625 134.78125 C109.37776921 132.39580298 108.93897477 130.01038489 108.5 127.625 C108.30954102 126.54057617 108.11908203 125.45615234 107.92285156 124.33886719 C107.73819336 123.34532227 107.55353516 122.35177734 107.36328125 121.328125 C107.12992065 120.03116699 107.12992065 120.03116699 106.8918457 118.70800781 C106.08494607 116.03531009 105.07460826 114.42452916 103.1875 112.375 C100.10912206 111.34887402 98.02175704 111.25409781 94.7980957 111.26147461 C93.14672356 111.26158791 93.14672356 111.26158791 91.46199036 111.26170349 C90.27441635 111.26686478 89.08684235 111.27202606 87.86328125 111.27734375 C86.64674362 111.2787587 85.43020599 111.28017365 84.17680359 111.28163147 C80.2845109 111.28723688 76.39227536 111.29979033 72.5 111.3125 C69.86393312 111.3175143 67.22786534 111.32207733 64.59179688 111.32617188 C58.12367836 111.33720807 51.65559326 111.3539515 45.1875 111.375 C45.20844727 110.20106689 45.22939453 109.02713379 45.25097656 107.81762695 C45.32416011 103.40255249 45.36958048 98.98752997 45.40722656 94.57202148 C45.42716555 92.67218975 45.45432691 90.77241796 45.48925781 88.87280273 C45.74010232 74.86608824 45.87374798 61.5097889 36.15234375 50.30859375 C23.40802963 37.7669725 6.69921662 38.86597438 -10.03344727 38.92895508 C-13.50271173 38.93750668 -16.97034874 38.90855949 -20.43945312 38.87695312 C-22.67187451 38.87534164 -24.90429878 38.87591763 -27.13671875 38.87890625 C-28.15988693 38.86767227 -29.18305511 38.85643829 -30.23722839 38.84486389 C-41.90899326 38.9567799 -52.23877319 43.41679287 -59.63671875 52.65234375 Z " fill="#FDFDFD" transform="translate(231.8125,-0.375)"/>
<path d="M0 0 C3.57400506 3.4907397 6.91054613 7.1109652 10.125 10.9375 C10.83885864 11.78393066 10.83885864 11.78393066 11.56713867 12.64746094 C15.36747668 17.18260183 19.03062177 21.81574393 22.66259766 26.48608398 C26.36025309 31.22618431 30.1645509 35.87095594 34 40.5 C38.71315544 46.19134549 43.34453269 51.93324992 47.88671875 57.76171875 C51.36853977 62.22089304 54.92248072 66.61734231 58.5 71 C63.00767214 76.52333657 67.44842767 82.09184597 71.8359375 87.7109375 C75.87114505 92.86574021 80.00112571 97.94049513 84.14208984 103.01049805 C88.32674673 108.14393601 92.43392939 113.33379897 96.48632812 118.57226562 C97.64309394 120.05953596 98.82046674 121.53072076 100 123 C100.49242187 123.62261719 100.98484375 124.24523437 101.4921875 124.88671875 C103.02347104 126.18014487 103.02347104 126.18014487 105.40625 126.49609375 C109.1430597 125.78137262 110.17160495 124.03279848 112.5 121.0625 C112.9230542 120.53108398 113.3461084 119.99966797 113.78198242 119.45214844 C115.20731184 117.64897444 116.60566717 115.82723376 118 114 C118.50096191 113.34692871 119.00192383 112.69385742 119.51806641 112.02099609 C121.67371832 109.20848615 123.82500867 106.39279194 125.96630859 103.56933594 C130.28365211 97.8877573 134.74164109 92.33588797 139.26049805 86.81396484 C144.14313017 80.84376019 148.91449827 74.79156793 153.66162109 68.71337891 C160.23011465 60.30446104 166.84224794 51.9326647 173.51708984 43.60791016 C178.25788525 37.68996284 182.94345018 31.72968699 187.61914062 25.76025391 C189.05054263 23.93557065 190.48571871 22.11391193 191.921875 20.29296875 C192.88550904 19.0703853 193.84905224 17.84773025 194.8125 16.625 C195.27197021 16.04210205 195.73144043 15.4592041 196.20483398 14.85864258 C198.72773065 11.64898039 201.20154111 8.41026169 203.625 5.125 C204.40875 4.09375 205.1925 3.0625 206 2 C206.33 2 206.66 2 207 2 C207.20846501 16.77675 206.55747607 31.43890385 205.6875 46.1875 C205.54895913 48.60748283 205.41078297 51.02748656 205.27294922 53.44750977 C204.65300784 64.25367845 204.00717351 75.05799639 203.30859375 85.859375 C203.25287201 86.72177292 203.19715027 87.58417084 203.13973999 88.47270203 C203.08363556 89.34046768 203.02753113 90.20823334 202.96972656 91.10229492 C202.85479156 92.88069492 202.73988305 94.65909664 202.625 96.4375 C202.53792786 97.78202744 202.53792786 97.78202744 202.44909668 99.15371704 C200.63903779 127.31029069 199.25818298 155.49314564 197.80126953 183.66967773 C197.59564333 187.64177813 197.389735 191.6138638 197.18359375 195.5859375 C197.13372063 196.54750574 197.0838475 197.50907398 197.03246307 198.49978065 C196.10525874 216.33865194 195.0730108 234.16923061 194 252 C181.46 252 168.92 252 156 252 C156 232.42717394 165.53811843 215.79383457 174.1222229 198.74235535 C176.8376019 193.34842705 179.45373357 187.9134592 182 182.4375 C182.3194458 181.75413574 182.6388916 181.07077148 182.96801758 180.36669922 C183.64739825 178.91209 184.32412592 177.45624184 185 176 C184.42765625 176.49113281 183.8553125 176.98226562 183.265625 177.48828125 C179.76571843 179.82356373 177.13120505 179.20656025 173 179 C172.74969023 181.41619823 172.74969023 181.41619823 173 184 C173.99 184.66 174.98 185.32 176 186 C175.34727108 190.24273795 173.0234967 193.9765033 170 197 C167.07162397 197.28803699 164.84965878 197.48693199 162 197 C159.5 194.875 159.5 194.875 158 192 C157.75 188.6875 157.75 188.6875 158 186 C155.85216319 187.77429998 155.06396261 188.64363687 154.5625 191.4375 C153.85406572 194.66481171 152.33064519 195.74453692 150 198 C150 198.99 150 199.98 150 201 C150.99 200.34 151.98 199.68 153 199 C156.0625 198.75 156.0625 198.75 159 199 C161 201 161 201 161.5 204.75 C161.2898159 214.05815293 155.64643178 226.40255912 149 233 C146.43004691 234.01759759 144.81778378 234.05635568 142 234 C139.625689 230.4385335 139.46545219 227.53232054 139.1484375 223.39453125 C139.08467926 222.63766525 139.02092102 221.88079926 138.95523071 221.10099792 C138.82174827 219.49158427 138.69258088 217.88180781 138.56738281 216.27172852 C138.37915507 213.8656143 138.17515046 211.46125564 137.96875 209.05664062 C137.13803057 199.01224023 136.82836069 189.07904187 137 179 C137.66 179 138.32 179 139 179 C139.042721 177.33388095 139.04063832 175.66617115 139 174 C137.93354885 172.70366379 137.93354885 172.70366379 135.4375 172.9375 C134.2309375 172.9684375 134.2309375 172.9684375 133 173 C133 174.65 133 176.3 133 178 C133.66 178.33 134.32 178.66 135 179 C134.67267779 189.71980245 133.62057056 200.35545946 132.38439941 211.00320435 C132.21194302 212.49694052 132.04354351 213.99115084 131.87927246 215.48580933 C131.64270904 217.62238019 131.38997211 219.75644664 131.1328125 221.890625 C130.98730957 223.13875977 130.84180664 224.38689453 130.69189453 225.67285156 C129.98346194 229.07952739 129.0705778 231.22175637 127 234 C124.5625 235.0625 124.5625 235.0625 122 235 C119.71032629 233.15554062 118.31318776 231.62637553 117 229 C117.16163133 218.81722594 122.28415508 211.134087 128 203 C122.06720225 202.25840028 118.58963335 204.58878603 114 208 C113.34 208.66 112.68 209.32 112 210 C112.15984375 209.03707031 112.3196875 208.07414063 112.484375 207.08203125 C114.51299853 192.77016421 113.8178498 179.35423733 105.890625 167.0078125 C104.79908574 164.54706171 105.19857516 163.50174512 106 161 C104.93354885 159.70366379 104.93354885 159.70366379 102.4375 159.9375 C101.2309375 159.9684375 101.2309375 159.9684375 100 160 C100.12375 160.78375 100.2475 161.5675 100.375 162.375 C99.90280912 166.93951181 98.06183861 169.50368551 95.5078125 173.2421875 C91.84117076 179.94853224 91.70630966 186.66931999 91.8125 194.125 C91.81314453 194.99253906 91.81378906 195.86007812 91.81445312 196.75390625 C91.84542592 201.27593373 92.08839191 205.5513525 93 210 C92.113125 209.21625 91.22625 208.4325 90.3125 207.625 C85.82646647 203.9058996 81.70043022 202.90831031 76 202 C76.45890625 202.70125 76.9178125 203.4025 77.390625 204.125 C79.29184954 207.06470853 81.15483106 210.02481325 83 213 C83.67095703 214.06927734 83.67095703 214.06927734 84.35546875 215.16015625 C87.26713355 220.27922035 88.00797493 225.16814502 87 231 C85.375 233.6875 85.375 233.6875 83 235 C79.875 235 79.875 235 77 234 C75.31716339 231.3323577 74.68318128 228.9402618 74.31396484 225.83325195 C74.21401215 225.02173172 74.11405945 224.21021149 74.01107788 223.37409973 C73.91203156 222.50427963 73.81298523 221.63445953 73.7109375 220.73828125 C73.60278717 219.83305222 73.49463684 218.92782318 73.38320923 217.99516296 C73.15615388 216.07996419 72.9328027 214.16432315 72.71289062 212.24829102 C72.37810015 209.33943587 72.02984426 206.43243149 71.6796875 203.52539062 C71.46012739 201.65894929 71.24135247 199.79241538 71.0234375 197.92578125 C70.86879532 196.63623283 70.86879532 196.63623283 70.71102905 195.32063293 C70.091082 189.84407842 69.90912423 184.51185815 70 179 C70.66 179 71.32 179 72 179 C72.042721 177.33388095 72.04063832 175.66617115 72 174 C70.93354885 172.70366379 70.93354885 172.70366379 68.4375 172.9375 C67.2309375 172.9684375 67.2309375 172.9684375 66 173 C66 174.98 66 176.96 66 179 C66.66 179 67.32 179 68 179 C68.22051656 189.20909987 67.64848759 199.30312131 66.88305664 209.47851562 C66.68534403 212.15417688 66.50768806 214.83075075 66.33007812 217.5078125 C66.20434966 219.2162364 66.07744072 220.92457393 65.94921875 222.6328125 C65.89908127 223.42962433 65.84894379 224.22643616 65.79728699 225.0473938 C65.3558784 230.49622488 65.3558784 230.49622488 63.59301758 232.99169922 C61.17967071 234.51922758 59.79316229 234.54500728 57 234 C53.67249975 230.39688862 51.49164537 226.38314174 49.375 222 C49.0759375 221.39671875 48.776875 220.7934375 48.46875 220.171875 C43.71480004 210.49569367 43.71480004 210.49569367 43.75 205.3125 C43.74226563 204.16201172 43.74226563 204.16201172 43.734375 202.98828125 C44 201 44 201 46 199 C49.50337981 198.61919785 51.36278626 198.59754922 54.375 200.5 C54.91125 200.995 55.4475 201.49 56 202 C54.12297673 197.10437307 54.12297673 197.10437307 51 193 C50.505 191.4840625 50.505 191.4840625 50 189.9375 C49.34247444 186.87849194 49.34247444 186.87849194 47 186 C47.103125 186.886875 47.20625 187.77375 47.3125 188.6875 C47 192 47 192 44.9375 194.875 C42 197 42 197 38.5 197.6875 C35 197 35 197 32.125 194.3125 C30.20033909 191.31229329 29.30849404 189.49626583 29 186 C29.66 185.67 30.32 185.34 31 185 C31.65772428 181.97065509 31.65772428 181.97065509 32 179 C30.046875 179.06510417 28.09375 179.13020833 26.140625 179.1953125 C23.69275542 178.97196674 22.15454671 178.14041026 20 177 C20.48178711 177.95994873 20.96357422 178.91989746 21.45996094 179.90893555 C26.09293906 189.15064111 30.69121223 198.40852086 35.21972656 207.7019043 C35.91148338 209.11902222 36.60552727 210.53502582 37.30175781 211.94995117 C47.62578284 232.9365332 47.62578284 232.9365332 49.25 242.9375 C49.39953125 243.81277344 49.5490625 244.68804687 49.703125 245.58984375 C50 248 50 248 50 252 C24.92 252 -0.16 252 -26 252 C-26 241.87709116 -26 241.87709116 -25.46850586 237.19824219 C-25.35068756 236.13766602 -25.23286926 235.07708984 -25.11148071 233.984375 C-24.98059052 232.85 -24.84970032 231.715625 -24.71484375 230.546875 C-24.57847504 229.32645508 -24.44210632 228.10603516 -24.30160522 226.84863281 C-24.00581494 224.2026799 -23.70841519 221.55696556 -23.40835571 218.91149902 C-22.59492162 211.73414408 -21.80113118 204.55460157 -21.0078125 197.375 C-20.88391238 196.25538502 -20.88391238 196.25538502 -20.75750923 195.11315155 C-18.91141272 178.41063068 -17.21199528 161.69406552 -15.53550339 144.97379684 C-14.87840045 138.42114557 -14.21930041 131.86869511 -13.55859375 125.31640625 C-13.48944574 124.63055513 -13.42029774 123.94470402 -13.34905434 123.23806953 C-12.11817608 111.04368123 -10.80516191 98.86072922 -9.41943359 86.68310547 C-8.00794865 74.25573601 -6.72182003 61.81608285 -5.4375 49.375 C-3.73647247 32.90271136 -1.98350452 16.44110351 0 0 Z " fill="#FCFCFC" transform="translate(116,133)"/>
<path d="M0 0 C2.74952156 2.74952156 2.74912001 4.99239168 3.4453125 8.8125 C3.57593582 9.51585983 3.70655914 10.21921967 3.84114075 10.94389343 C4.27618402 13.29468296 4.70037861 15.64730759 5.125 18 C5.43214024 19.66788761 5.74018198 21.33560944 6.04907227 23.00317383 C6.70265939 26.53367279 7.35296679 30.06475435 8.00146484 33.59619141 C9.44425518 41.42981544 10.94192353 49.252933 12.43838501 57.07644653 C12.94332913 59.7179943 13.44687393 62.35980507 13.94995117 65.00170898 C15.45546509 72.90788001 16.96340769 80.81357256 18.47883606 88.71784973 C22.67083723 110.58501056 26.76225355 132.46865086 30.76733398 154.37084961 C32.45047576 163.5733512 34.13662564 172.77502866 35.8671875 181.96875 C36.00903473 182.72235809 36.15088196 183.47596619 36.29702759 184.25241089 C36.94088657 187.66896477 37.58745146 191.084975 38.23681641 194.50048828 C38.45772949 195.66821777 38.67864258 196.83594727 38.90625 198.0390625 C39.09509766 199.03115723 39.28394531 200.02325195 39.47851562 201.04541016 C40.0619597 204.35104694 40.52528658 207.67700607 41 211 C23.84 211 6.68 211 -11 211 C-11 200.38312816 -10.84547223 189.9173975 -10.23046875 179.33984375 C-10.14863646 177.87681472 -10.06715915 176.4137658 -9.98600769 174.95069885 C-9.76998178 171.07821931 -9.5482171 167.20608954 -9.32506561 163.33401489 C-9.13952522 160.1017368 -8.95750801 156.86926367 -8.77535629 153.63679314 C-7.66661426 133.97954553 -6.48092603 114.32837415 -5.18981934 94.68218994 C-4.16946317 79.14030724 -3.33463875 63.59502945 -2.58761597 48.03781128 C-2.54967926 47.24802887 -2.51174255 46.45824646 -2.47265625 45.64453125 C-2.41611374 44.46602097 -2.41611374 44.46602097 -2.35842896 43.26370239 C-1.91011877 34.00662305 -1.39468436 24.75330414 -0.875 15.5 C-0.83043671 14.70558502 -0.78587341 13.91117004 -0.73995972 13.09268188 C-0.49487743 8.72836493 -0.24821645 4.36414 0 0 Z " fill="#F9F9F9" transform="translate(334,174)"/>
<path d="M0 0 C1.02991562 -0.00004028 2.05983124 -0.00008057 3.12095642 -0.00012207 C5.28325554 0.00520477 7.44555606 0.02266461 9.60766602 0.05175781 C12.89725559 0.09368515 16.18479683 0.0928102 19.47460938 0.0859375 C21.58725365 0.09642989 23.6998875 0.10936825 25.8125 0.125 C26.78461929 0.12520142 27.75673859 0.12540283 28.75831604 0.12561035 C36.03378715 0.25035324 42.22800813 1.54157067 48.58984375 5.15625 C55.48306613 12.62390758 57.00970347 20.98419102 56.96484375 30.71875 C56.96871094 31.50378906 56.97257812 32.28882812 56.9765625 33.09765625 C56.9627161 41.97320101 56.33435484 50.69255038 55.83984375 59.59375 C28.11984375 59.59375 0.39984375 59.59375 -28.16015625 59.59375 C-28.16015625 15.63375 -28.16015625 15.63375 -23.59765625 7.96875 C-16.8164416 1.36141264 -9.16587656 -0.15490952 0 0 Z " fill="#FCFCFC" transform="translate(207.16015625,51.40625)"/>
<path d="M0 0 C2.5625 0.1875 2.5625 0.1875 4.5625 2.1875 C4.1875 4.8125 4.1875 4.8125 3.5625 7.1875 C2.9025 7.1875 2.2425 7.1875 1.5625 7.1875 C1.2325 10.1575 0.9025 13.1275 0.5625 16.1875 C0.2325 16.1875 -0.0975 16.1875 -0.4375 16.1875 C-0.4375 13.2175 -0.4375 10.2475 -0.4375 7.1875 C-1.0975 7.1875 -1.7575 7.1875 -2.4375 7.1875 C-2.81883299 5.1960944 -3.15075582 3.19470923 -3.4375 1.1875 C-2.4375 0.1875 -2.4375 0.1875 0 0 Z " fill="#1D1D1D" transform="translate(184.4375,304.8125)"/>
<path d="M0 0 C2.5625 0.1875 2.5625 0.1875 4.5625 2.1875 C4.1875 4.8125 4.1875 4.8125 3.5625 7.1875 C2.9025 7.1875 2.2425 7.1875 1.5625 7.1875 C1.5625 10.1575 1.5625 13.1275 1.5625 16.1875 C1.2325 16.1875 0.9025 16.1875 0.5625 16.1875 C0.2325 13.2175 -0.0975 10.2475 -0.4375 7.1875 C-1.4275 6.8575 -2.4175 6.5275 -3.4375 6.1875 C-3.480221 4.52138095 -3.47813832 2.85367115 -3.4375 1.1875 C-2.4375 0.1875 -2.4375 0.1875 0 0 Z " fill="#1E1E1E" transform="translate(251.4375,304.8125)"/>
<path d="M0 0 C2.39763185 2.39763185 2.34280586 3.33273498 2.625 6.625 C2.69976562 7.44226563 2.77453125 8.25953125 2.8515625 9.1015625 C2.90054687 9.72804687 2.94953125 10.35453125 3 11 C2.34 11 1.68 11 1 11 C0.67 11.66 0.34 12.32 0 13 C0 8.71 0 4.42 0 0 Z " fill="#B2B2B2" transform="translate(334,174)"/>
</svg>
